<?xml version="1.0" standalone="no"?>
<!DOCTYPE svg PUBLIC "-//W3C//DTD SVG 20010904//EN"
 "http://www.w3.org/TR/2001/REC-SVG-20010904/DTD/svg10.dtd">
<svg version="1.0" xmlns="http://www.w3.org/2000/svg"
 width="1000.000000pt" height="1000.000000pt" viewBox="0 0 1000.000000 1000.000000"
 preserveAspectRatio="xMidYMid meet">
<metadata>
Created by potrace 1.14, written by Peter Selinger 2001-2017
</metadata>
<g transform="translate(0.000000,1000.000000) scale(0.100000,-0.100000)"
fill="#000000" stroke="none">
<path d="M3690 9169 c-151 -13 -350 -47 -514 -89 -453 -114 -937 -369 -1280
-675 -134 -120 -162 -147 -252 -245 -267 -292 -510 -693 -639 -1055 -195 -544
-237 -1148 -119 -1709 159 -753 590 -1421 1215 -1884 962 -711 2258 -808 3325
-247 l121 63 1134 -1135 c624 -624 1167 -1162 1207 -1194 324 -261 791 -231
1075 70 110 117 176 249 207 415 15 83 8 245 -15 331 -22 84 -84 209 -138 280
-25 33 -563 577 -1195 1209 l-1149 1148 73 142 c224 433 336 866 351 1356 9
308 -19 566 -92 860 -264 1059 -1081 1918 -2125 2233 -381 115 -801 160 -1190
126z"/>
</g>
</svg>
